<svg xmlns="http://www.w3.org/2000/svg" width="40" height="40" viewBox="61 90 97 97">
  <rect width="17.48" height="11.18" x="-49.23" y="189.35" rx="0.68" ry="1" fill="#f1c33e" transform="matrix(0.7575,-0.6528,0.7511,0.6602,0,0)"/>
  <path fill="#dd642e" stroke="#dd642e" stroke-width="1.59" stroke-linejoin="round" d="m 112.22,121.04 23.53,22.59 -8.03,6.82 -24.36,-23.03 z"/>
  <path fill="#e66c2d" stroke="#e66c2d" stroke-width="1.59" stroke-linejoin="round" d="m 139.34,127.47 7.34,6.24 -8.17,7.36 -6.75,-6.8 z"/>
  <path fill="#f8c64a" stroke="#f8c64a" stroke-width="1.59" stroke-linejoin="round" d="m 138.83,146.12 10.15,9.38 -8.41,6.86 -10.08,-9.23 z"/>
  <path fill="#fafafc" d="m 118.28,173.72 2.02,0.23 c 0,0 4.76,0.41 7.02,0.17 2.26,-0.24 10.93,-2.36 14.84,-5.31 4.2,-3.17 9.76,-10.28 10.85,-11.98 1.09,-1.7 0.52,-0.93 0.52,-0.93 l -6.42,-6.22 c 0,0 -0.24,1.21 0.4,-1.05 0.65,-2.26 1.03,-11.11 0.95,-11.63 -0.08,-0.52 0.16,-1.11 0.16,-1.11 l 1.46,-3.04 -9.1,-8.29 c 0,0 -3.35,-2.74 -4.46,-3.54 -1.11,-0.8 -8.33,-5.15 -9.93,-5.92 -1.6,-0.77 -7.53,-3.2 -9.74,-3.78 -2.21,-0.58 -4.95,-1.14 -6.12,-1.17 -1.17,-0.03 -2.03,-0.12 -2.03,-0.12 l 2.43,-0.34 c 0,0 2.27,0 3.44,0.18 1.17,0.18 5.96,1.17 7.59,1.72 1.63,0.55 7.47,2.92 9.41,4.03 1.94,1.11 5.26,3.6 5.26,3.6 l -2.03,-2.46 c 0,0 -5.1,-4.76 -6.3,-5.59 -1.2,-0.83 -6.01,-3.88 -8.37,-4.96 -2.37,-1.08 -7.66,-2.91 -10.48,-3.65 -2.82,-0.73 -4.13,-1.05 -6.22,-1.17 -2.09,-0.12 -3.23,-0.25 -3.23,-0.25 l 3.04,-0.99 c 0,0 5.01,-1.07 7.01,-1.25 2,-0.18 8.58,-0.58 12.36,0.03 3.78,0.61 9.59,2.03 13.43,3.9 3.84,1.87 7.04,4.06 10.2,6.76 3.17,2.7 5.81,6.24 7.16,8.42 1.35,2.18 3.81,6.82 4.89,11.22 1.08,4.4 1.46,7.57 1.46,11.5 0,3.93 0.05,6.48 -0.63,9.71 -0.68,3.23 -2.67,7.83 -3.59,9.52 -0.92,1.69 -2.1,3.39 -3.82,5.6 -1.72,2.21 -3.14,3.6 -4.24,4.52 -1.11,0.92 -2.49,1.6 -4.3,2.43 -1.81,0.83 -5.1,2 -7.04,2.27 -1.94,0.28 -5.56,0.49 -7.9,0.46 -2.34,-0.03 -4.86,-0.12 -6.82,-0.58 -1.97,-0.46 -3.12,-0.95 -3.12,-0.95 z"/>
  <path fill="#4059d1" d="m 66.04,154.55 1.22,-5.84 24.42,-19.66 c 0,0 -1.66,6.01 -1.82,7.23 -0.24,1.89 -0.06,6.13 0.24,9.2 -0.23,2.54 -0.52,2.33 -0.9,4.93 -0.24,1.61 -0.3,4.29 -0.27,5.25 0.06,2.5 0.19,6.88 0.48,8.84 0.28,1.94 2.47,8.25 4.21,11.62 0.1,0.19 0.12,0.19 0.5,0.78 0.87,1.36 2.05,3.43 2.05,3.43 0,0 -1.83,-0.75 -2.85,-1.27 -5.6,-2.86 -11.69,-7.46 -14.64,-9.93 -2.95,-2.47 -10.81,-9.48 -11.59,-10.39 -0.79,-0.91 -1.44,-2.27 -1.04,-4.18 z"/>
  <path fill="#be3e9e" d="m 96.47,101.57 c 0,0 -3.94,-2.29 -7.14,-4.02 -0.62,-0.34 -1.09,-0.82 -2.12,-0.69 -1.31,0.17 -1.98,1.1 -1.98,1.1 -2.29,5.77 -5.53,13.4 -6.96,16.67 0,0 -4.38,11.23 -5.21,13.9 -1.66,5.31 -5.77,20.22 -5.77,20.22 l 24.15,-19.49 c 0,0 16.23,-10.87 21.07,-14.55 4.85,-3.69 -3.76,-6.27 -3.76,-6.27 z"/>
  <path fill="#4387d5" d="m 89.38,149.36 c -0.32,1.52 -0.5,4.46 -0.44,6.31 0.09,2.73 0.06,5.45 0.45,8.71 0.39,3.26 4.05,11.76 4.28,11.87 0.23,0.11 2.48,4.05 2.48,4.05 0,0 4.26,2.37 7.75,3.16 3.49,0.79 12.01,2.04 19.78,0.19 7.76,-1.86 14.56,-5.18 19.11,-8.72 4.56,-3.54 4.66,-4.75 4.66,-4.75 0,0 -3.94,2.53 -6.36,3.21 -2.42,0.68 -4.33,1.63 -8.55,1.8 -4.22,0.17 -8.44,0.34 -13.05,-0.96 -2.78,-0.78 -9.67,-2.45 -16.73,-7.83 -3.94,-3 -9.59,-9.6 -10.93,-14.64 -0.26,-0.98 -1.6,-3.46 -1.81,-4.77 -2.5,-15.94 -0.05,-0.29 -0.05,-0.29 0,0 -0.54,2.39 -0.6,2.68 z"/>
</svg>
