<?xml version="1.0" encoding="UTF-8" standalone="no"?>
<!-- Created with Inkscape (http://www.inkscape.org/) -->

<svg
   width="520"
   height="592"
   viewBox="45 75 130 148"
   version="1.1"
   id="svg1"
   inkscape:version="1.4.2 (ebf0e940, 2025-05-08)"
   sodipodi:docname="jj-idea-logo-dark.svg"
   xmlns:inkscape="http://www.inkscape.org/namespaces/inkscape"
   xmlns:sodipodi="http://sodipodi.sourceforge.net/DTD/sodipodi-0.dtd"
   xmlns:xlink="http://www.w3.org/1999/xlink"
   xmlns="http://www.w3.org/2000/svg"
   xmlns:svg="http://www.w3.org/2000/svg">
  <sodipodi:namedview
     id="namedview1"
     pagecolor="#ffffff"
     bordercolor="#000000"
     borderopacity="0.25"
     inkscape:showpageshadow="2"
     inkscape:pageopacity="0.0"
     inkscape:pagecheckerboard="0"
     inkscape:deskcolor="#d1d1d1"
     inkscape:document-units="mm"
     inkscape:zoom="0.44935418"
     inkscape:cx="426.16717"
     inkscape:cy="568.5938"
     inkscape:window-width="1144"
     inkscape:window-height="648"
     inkscape:window-x="0"
     inkscape:window-y="33"
     inkscape:window-maximized="0"
     inkscape:current-layer="layer1" />
  <defs
     id="defs1">
    <linearGradient
       inkscape:collect="always"
       xlink:href="#linearGradient160"
       id="linearGradient161"
       x1="1078.1466"
       y1="248.04745"
       x2="1078.1466"
       y2="424.56137"
       gradientUnits="userSpaceOnUse"
       gradientTransform="matrix(0.26458333,0,0,0.26458333,-194.62136,33.816573)" />
    <linearGradient
       id="linearGradient160"
       inkscape:collect="always">
      <stop
         style="stop-color:#ee3d7e;stop-opacity:1;"
         offset="0"
         id="stop160" />
      <stop
         style="stop-color:#8d3fbe;stop-opacity:1;"
         offset="1"
         id="stop161" />
    </linearGradient>
    <linearGradient
       inkscape:collect="always"
       xlink:href="#linearGradient180"
       id="linearGradient181"
       x1="1260.7502"
       y1="347.59021"
       x2="1260.7502"
       y2="409.91089"
       gradientUnits="userSpaceOnUse"
       gradientTransform="matrix(0.06998315,0.00172244,-0.00172244,0.06998315,-245.36832,40.667849)" />
    <linearGradient
       id="linearGradient180"
       inkscape:collect="always">
      <stop
         style="stop-color:#dc5b37;stop-opacity:1;"
         offset="0"
         id="stop180" />
      <stop
         style="stop-color:#f07e23;stop-opacity:1;"
         offset="1"
         id="stop181" />
    </linearGradient>
    <linearGradient
       inkscape:collect="always"
       xlink:href="#linearGradient178"
       id="linearGradient179"
       x1="1140.6748"
       y1="341.2482"
       x2="1234.173"
       y2="429.23331"
       gradientUnits="userSpaceOnUse"
       gradientTransform="matrix(0.26458333,0,0,0.26458333,-194.62136,33.816573)" />
    <linearGradient
       id="linearGradient178"
       inkscape:collect="always">
      <stop
         style="stop-color:#cb4c35;stop-opacity:1;"
         offset="0"
         id="stop178" />
      <stop
         style="stop-color:#ef7c27;stop-opacity:1;"
         offset="1"
         id="stop179" />
    </linearGradient>
    <linearGradient
       inkscape:collect="always"
       xlink:href="#linearGradient178"
       id="linearGradient177"
       x1="1142.6498"
       y1="340.02957"
       x2="1235.8391"
       y2="427.72104"
       gradientUnits="userSpaceOnUse"
       gradientTransform="matrix(0.26458333,0,0,0.26458333,-194.62136,33.816573)" />
    <linearGradient
       inkscape:collect="always"
       xlink:href="#linearGradient168"
       id="linearGradient169"
       x1="429.5242"
       y1="1163.1266"
       x2="365.97183"
       y2="1121.3948"
       gradientUnits="userSpaceOnUse"
       gradientTransform="matrix(0.26458333,0,0,0.26458333,-145.65924,-107.4038)" />
    <linearGradient
       id="linearGradient168"
       inkscape:collect="always">
      <stop
         style="stop-color:#eac63c;stop-opacity:1;"
         offset="0"
         id="stop168" />
      <stop
         style="stop-color:#f8c040;stop-opacity:1;"
         offset="1"
         id="stop169" />
    </linearGradient>
    <linearGradient
       inkscape:collect="always"
       xlink:href="#linearGradient172"
       id="linearGradient173"
       x1="1263.7145"
       y1="417.25034"
       x2="1263.7145"
       y2="493.04453"
       gradientUnits="userSpaceOnUse"
       gradientTransform="matrix(0.07000036,-7.4629168e-4,7.4629168e-4,0.07000036,-246.44957,43.708783)" />
    <linearGradient
       id="linearGradient172"
       inkscape:collect="always">
      <stop
         style="stop-color:#f8b446;stop-opacity:1;"
         offset="0"
         id="stop172" />
      <stop
         style="stop-color:#f8d74d;stop-opacity:1;"
         offset="1"
         id="stop173" />
    </linearGradient>
    <linearGradient
       inkscape:collect="always"
       xlink:href="#linearGradient164"
       id="linearGradient165"
       x1="1071.5785"
       y1="485.26276"
       x2="1292.8523"
       y2="485.26276"
       gradientUnits="userSpaceOnUse"
       gradientTransform="matrix(0.26458333,0,0,0.26458333,-194.62136,33.816573)" />
    <linearGradient
       id="linearGradient164"
       inkscape:collect="always">
      <stop
         style="stop-color:#3369cf;stop-opacity:1;"
         offset="0"
         id="stop164" />
      <stop
         style="stop-color:#52a5db;stop-opacity:1;"
         offset="1"
         id="stop165" />
    </linearGradient>
    <linearGradient
       inkscape:collect="always"
       xlink:href="#linearGradient162"
       id="linearGradient163"
       x1="1041.8628"
       y1="399.65387"
       x2="1041.8628"
       y2="513.96967"
       gradientUnits="userSpaceOnUse"
       gradientTransform="matrix(0.26458333,0,0,0.26458333,-194.62136,33.816573)" />
    <linearGradient
       id="linearGradient162"
       inkscape:collect="always">
      <stop
         style="stop-color:#4f44d1;stop-opacity:1;"
         offset="0"
         id="stop162" />
      <stop
         style="stop-color:#306ed0;stop-opacity:1;"
         offset="1"
         id="stop163" />
    </linearGradient>
  </defs>
  <g
     inkscape:label="Layer 1"
     inkscape:groupmode="layer"
     id="layer1">
    <rect x="45" y="75" width="130" height="148" rx="12" ry="12" fill="#1e1f22" id="background" />
    <text
       xml:space="preserve"
       style="font-style:normal;font-variant:normal;font-weight:bold;font-stretch:normal;font-size:20.301px;font-family:'.Damascus PUA';-inkscape-font-specification:'.Damascus PUA, Bold';font-variant-ligatures:normal;font-variant-caps:normal;font-variant-numeric:normal;font-variant-east-asian:normal;text-align:start;writing-mode:lr-tb;direction:ltr;text-anchor:start;display:inline;fill:#fafafc;fill-opacity:0.501961;fill-rule:nonzero;stroke:none;stroke-width:1.26881;stroke-linejoin:round;stroke-miterlimit:4;stroke-dasharray:none;stroke-opacity:1;paint-order:markers stroke fill"
       x="106.76986"
       y="184.35664"
       id="text183"
       transform="scale(0.90419053,1.1059616)"
       inkscape:label="IDEA text"><tspan
         id="tspan183"
         x="106.76986"
         y="184.35664"
         sodipodi:role="line"
         style="stroke-width:1.26881">-IDEA</tspan></text>
    <path
       d="m 75.507742,182.25265 h 4.755489 v 13.90544 c 0,1.31401 -0.117131,2.38256 -0.476515,3.33558 -0.359383,0.94339 -0.834284,1.66217 -1.54506,2.37292 -0.595207,0.59524 -1.419887,1.19529 -2.37453,1.42953 -0.986684,0.39308 -2.029566,0.59524 -3.091709,0.59524 -1.662166,0 -3.091707,-0.35939 -4.160248,-0.95463 -1.038053,-0.584 -1.955778,-1.35251 -2.733918,-2.25419 l 2.976187,-3.32595 c 0.592026,0.71075 1.187267,1.18727 1.779299,1.54665 0.592032,0.35137 1.302782,0.59203 2.021575,0.59203 0.835898,0 1.538632,-0.24227 2.13868,-0.8359 0.468498,-0.59203 0.71075,-1.42953 0.71075,-2.73231 z"
       id="path1-0"
       style="fill:#fafafc;fill-opacity:1;stroke-width:1.60441"
       inkscape:label="J" />
    <path
       d="m 90.535652,182.25265 h 4.755489 v 13.90544 c 0,1.31402 -0.117131,2.38256 -0.476515,3.33558 -0.35941,0.94339 -0.83431,1.66217 -1.545061,2.37292 -0.595233,0.59524 -1.419913,1.19529 -2.374529,1.42953 -0.986711,0.39308 -2.029566,0.59524 -3.091683,0.59524 -1.662192,0 -3.091709,-0.35939 -4.160282,-0.95462 -1.038039,-0.58401 -1.955747,-1.35252 -2.733886,-2.2542 l 2.976165,-3.32595 c 0.592058,0.71075 1.187291,1.18727 1.779323,1.54665 0.592032,0.35137 1.302782,0.59203 2.021549,0.59203 0.835898,0 1.538632,-0.24227 2.138706,-0.8359 0.468472,-0.59203 0.710724,-1.42953 0.710724,-2.73231 z"
       id="path1-0-0"
       style="fill:#fafafc;fill-opacity:1;stroke-width:1.60441"
       inkscape:label="J" />
    <rect
       style="display:inline;fill:url(#linearGradient169);fill-rule:nonzero;stroke:#ffffff;stroke-width:0;stroke-miterlimit:4;paint-order:markers stroke fill"
       id="rect149"
       width="17.482849"
       height="11.182457"
       x="-49.231064"
       y="189.34514"
       ry="1.0029424"
       rx="0.68425381"
       transform="matrix(0.75752795,-0.65280273,0.75109432,0.66019491,0,0)" />
    <path
       style="display:inline;fill:url(#linearGradient179);fill-opacity:1;fill-rule:nonzero;stroke:url(#linearGradient177);stroke-width:1.5875;stroke-linejoin:round;stroke-miterlimit:4;stroke-dasharray:none;stroke-opacity:1;paint-order:markers stroke fill"
       d="m 112.21569,121.03971 23.52638,22.58677 -8.0263,6.82352 -24.35545,-23.02811 z"
       id="path150"
       sodipodi:nodetypes="ccccc" />
    <path
       style="display:inline;fill:url(#linearGradient181);fill-rule:nonzero;stroke:url(#linearGradient181);stroke-width:1.5875;stroke-linejoin:round;stroke-miterlimit:4;stroke-dasharray:none;paint-order:markers stroke fill"
       d="m 139.33921,127.47493 7.33505,6.2428 -8.16907,7.35895 -6.75082,-6.79899 z"
       id="path151"
       sodipodi:nodetypes="ccccc" />
    <path
       style="display:inline;fill:url(#linearGradient173);fill-opacity:1;fill-rule:nonzero;stroke:url(#linearGradient173);stroke-width:1.5875;stroke-linejoin:round;stroke-miterlimit:4;stroke-dasharray:none;paint-order:markers stroke fill"
       d="m 138.82989,146.12208 10.1537,9.37509 -8.41192,6.86349 -10.08089,-9.23325 z"
       id="path152"
       sodipodi:nodetypes="ccccc" />
    <path
       style="display:inline;fill:#fafafc;fill-opacity:1;fill-rule:nonzero;stroke:none;stroke-width:1.5875;stroke-linejoin:round;stroke-miterlimit:4;stroke-dasharray:none;stroke-opacity:1;paint-order:markers stroke fill"
       d="m 118.27523,173.72263 2.02152,0.23407 c 0,0 4.75658,0.40814 7.01678,0.16598 2.2602,-0.24216 10.92753,-2.3558 14.83646,-5.30926 4.20187,-3.17479 9.76484,-10.28256 10.85458,-11.97771 1.08974,-1.69514 0.5247,-0.92829 0.5247,-0.92829 l -6.41734,-6.21554 c 0,0 -0.24217,1.21082 0.40359,-1.04937 0.64577,-2.2602 1.03124,-11.10878 0.95052,-11.63346 -0.0807,-0.52469 0.15706,-1.10532 0.15706,-1.10532 l 1.45902,-3.04101 -9.09942,-8.29391 c 0,0 -3.35016,-2.74009 -4.45664,-3.53921 -1.10647,-0.79912 -8.33393,-5.14961 -9.93217,-5.918 -1.59824,-0.76838 -7.53015,-3.19648 -9.7431,-3.78045 -2.21295,-0.58397 -4.94839,-1.1372 -6.11634,-1.16794 -1.16795,-0.0307 -2.02854,-0.12294 -2.02854,-0.12294 l 2.42811,-0.33809 c 0,0 2.27441,0 3.44236,0.18441 1.16793,0.18441 5.96265,1.16795 7.59164,1.72118 1.62896,0.55324 7.46868,2.91986 9.40501,4.02633 1.93633,1.10648 5.25574,3.59604 5.25574,3.59604 l -2.02854,-2.45883 c 0,0 -5.10206,-4.76398 -6.30073,-5.59383 -1.1987,-0.82986 -6.00578,-3.88484 -8.3724,-4.96058 -2.36662,-1.07574 -7.65929,-2.91349 -10.48075,-3.64514 -2.82403,-0.73232 -4.13107,-1.045 -6.2211,-1.16794 -2.08999,-0.12295 -3.23302,-0.24607 -3.23302,-0.24607 l 3.04297,-0.9899 c 0,0 5.00968,-1.06937 7.00749,-1.253782 1.99779,-0.184412 8.57517,-0.583972 12.35562,0.03073 3.78045,0.614709 9.58943,2.028542 13.43133,3.903392 3.84194,1.87486 7.03842,4.05707 10.20416,6.76178 3.16574,2.70471 5.80898,6.23928 7.16132,8.42149 1.35237,2.18221 3.81119,6.82325 4.88694,11.21841 1.07574,4.39515 1.45692,7.56708 1.45692,11.50121 0,3.93412 0.0491,6.47898 -0.62706,9.70619 -0.67619,3.22721 -2.66647,7.82823 -3.58852,9.51868 -0.92207,1.69044 -2.09753,3.38861 -3.8187,5.60156 -1.7212,2.21294 -3.13502,3.59759 -4.24148,4.51965 -1.10649,0.92206 -2.48957,1.59824 -4.30298,2.4281 -1.81337,0.82985 -5.10206,1.99779 -7.03839,2.27441 -1.93632,0.27662 -5.5631,0.49177 -7.89897,0.46103 -2.33591,-0.0307 -4.85619,-0.12294 -6.82326,-0.58397 -1.96705,-0.46103 -3.12439,-0.9541 -3.12439,-0.9541 z"
       id="path158"
       sodipodi:nodetypes="ccsssccsscccssssccsssccssssccsssssssssssssssc" />
    <path
       style="display:inline;mix-blend-mode:normal;fill:url(#linearGradient163);fill-rule:nonzero;stroke:none;stroke-width:1.5875;stroke-linejoin:round;stroke-miterlimit:4;stroke-dasharray:none;stroke-opacity:1;paint-order:markers stroke fill"
       d="m 66.035593,154.55139 1.21816,-5.84342 24.416803,-19.66409 c 0,0 -1.661372,6.00597 -1.815994,7.23439 -0.238072,1.8915 -0.06276,6.12741 0.239686,9.20259 -0.228547,2.54421 -0.517181,2.32858 -0.898366,4.92858 -0.236511,1.61323 -0.295646,4.29412 -0.273421,5.24962 0.05816,2.49846 0.193437,6.8839 0.476435,8.83607 0.280935,1.93799 2.466526,8.24948 4.212617,11.61931 0.09924,0.19152 0.121338,0.18906 0.500168,0.77819 0.87212,1.35633 2.049489,3.42621 2.049489,3.42621 0,0 -1.834118,-0.74831 -2.852737,-1.268 -5.601917,-2.85807 -11.692943,-7.46204 -14.638285,-9.93094 -2.945368,-2.4689 -10.809994,-9.47846 -11.591385,-10.38656 -0.785437,-0.91281 -1.442619,-2.26582 -1.04317,-4.18195 z"
       id="path155"
       sodipodi:nodetypes="sccscssssscssss" />
    <path
       style="display:inline;fill:url(#linearGradient161);fill-rule:nonzero;stroke:none;stroke-width:1.5875;stroke-linejoin:round;stroke-miterlimit:4;stroke-dasharray:none;stroke-opacity:1;paint-order:markers stroke fill"
       d="m 96.469357,101.56686 c 0,0 -3.942927,-2.287648 -7.141316,-4.020714 -0.621162,-0.336574 -1.093973,-0.820473 -2.117434,-0.68544 -1.314371,0.173408 -1.979189,1.099394 -1.979189,1.099394 -2.294625,5.76702 -5.528548,13.40073 -6.962219,16.67407 0,0 -4.377955,11.23395 -5.210704,13.90027 -1.658435,5.31004 -5.771558,20.22229 -5.771558,20.22229 l 24.15494,-19.48982 c 0,0 16.232693,-10.86844 21.065203,-14.54568 4.85113,-3.6914 -3.75632,-6.27247 -3.75632,-6.27247 z"
       id="path153"
       sodipodi:nodetypes="cssccsccscc" />
    <path
       style="display:inline;fill:url(#linearGradient165);fill-rule:nonzero;stroke:none;stroke-width:1.5875;stroke-linejoin:round;stroke-miterlimit:4;stroke-dasharray:none;stroke-opacity:1;paint-order:markers stroke fill"
       d="m 89.381064,149.35776 c -0.315066,1.51896 -0.501915,4.45914 -0.440241,6.30782 0.09094,2.72601 0.05937,5.4488 0.453126,8.71141 0.393753,3.2626 4.050135,11.75662 4.275137,11.86913 0.225002,0.1125 2.475071,4.05013 2.475071,4.05013 0,0 4.262653,2.36872 7.750283,3.15625 3.4876,0.78752 12.01274,2.04387 19.77549,0.18756 7.76276,-1.85631 14.55674,-5.17516 19.11312,-8.71902 4.55639,-3.54387 4.66276,-4.75012 4.66276,-4.75012 0,0 -3.93764,2.53134 -6.35646,3.20636 -2.41882,0.67502 -4.33139,1.6313 -8.55027,1.80005 -4.21889,0.16876 -8.43778,0.33752 -13.05042,-0.95628 -2.78368,-0.78079 -9.66774,-2.45409 -16.72987,-7.83333 -3.941362,-3.00216 -9.59101,-9.59683 -10.925462,-14.64384 -0.259821,-0.9827 -1.602291,-3.46097 -1.807819,-4.76953 -2.503514,-15.93889 -0.04731,-0.29302 -0.04731,-0.29302 0,0 -0.536761,2.38534 -0.597138,2.67643 z"
       id="path156"
       sodipodi:nodetypes="sssscssscsssssscs" />
  </g>
</svg>
