<svg width="16" height="16" viewBox="0 0 16 16" fill="none" xmlns="http://www.w3.org/2000/svg">
  <style>
    .primary { stroke: #6c707e }
    .primary-fill { fill: #6c707e }
    .accent { stroke: #20a070 }
    .accent-fill { fill: #20a070 }
    .contrast { stroke: #ced0d6 }
    .contrast-fill { fill: #ced0d6 }
  </style>
  <path d="
    M8.10584,4.34613
    L8.25344,4.5
    H8.46667 H13
    C13.8284,4.5 14.5,5.17157 14.5,6
    V12.1333
    C14.5,12.9529 13.932,13.5 13.3667,13.5
    H2.63333
    C2.06804,13.5 1.5,12.9529 1.5,12.1333
    V3.86667
    C1.5,3.04707 2.06804,2.5 2.63333,2.5
    H6.1217
    C6.25792,2.5 6.38824,2.55557 6.48253,2.65387
    L8.10584,4.34613Z
  " class="primary contrast-fill"/>
  <line x1="5" y1="7" x2="5" y2="11" class="accent" />
  <circle cx="5" cy="7" r="1.5" class="accent-fill" />
  <circle cx="5" cy="11" r="1.5" class="accent-fill" />
  <line x1="8" y1="7" x2="13" y2="7" class="accent" />
  <line x1="8" y1="11" x2="13" y2="11" class="accent" />
</svg>
